<?xml version="1.0" encoding="utf-8"?><svg version="1.1" id="Layer_1" xmlns="http://www.w3.org/2000/svg" xmlns:xlink="http://www.w3.org/1999/xlink" x="0px" y="0px" viewBox="0 0 89.39 122.88" style="enable-background:new 0 0 89.39 122.88" xml:space="preserve"><style type="text/css">.st0{fill-rule:evenodd;clip-rule:evenodd;}</style><g><path class="st0" d="M38.29,2c4.58-3.1,9.8-2.42,14.11,0.87c1.13,0.87,2.1,1.93,2.87,3.22c0.65,1.1,1.8,3.34-0.34,3.69 c-0.84,0.14-2.32-1.01-3.45-1.38c-1.46-0.47-2.96-0.78-4.45-0.93c-2.78-0.29-5.51-0.06-7.86,0.59c-1.28,0.35-2.51,0.78-3.7,1.33 c-0.55,0.26-1.68,1.01-1.99,0.04C32.76,7.19,36.64,3.11,38.29,2L38.29,2z M3.52,79.63h6.54c3.28-5.1,10.34-7.76,16.65-10.14 c1.26-0.48,2.49-0.94,3.65-1.41l0.02-0.02c1.07-0.91,2.17-2,3.04-2.97c0.64-0.72,1.15-1.34,1.42-1.74 c-0.22-0.19-0.45-0.38-0.67-0.59c-1.62-1.46-3.09-3.27-4.42-5.37c-1.23-1.95-2.34-4.16-3.34-6.6c-0.44-0.13-0.86-0.29-1.26-0.48 c-0.57-0.27-1.09-0.58-1.56-0.94c-1.39-1.06-2.3-2.51-2.84-4.1c-0.59-1.78-0.7-3.74-0.46-5.55c0.13-0.94,0.39-1.75,0.78-2.43 c0.41-0.71,0.96-1.29,1.64-1.73c0.2-0.13,0.43-0.18,0.65-0.16c-0.39-2-0.33-3.91-0.24-6.16c0.21-5.87,1.7-10.56,6.33-14.63 c6.98-6.14,20.79-6.67,28.48-1.39c1.14,0.79,2.2,1.72,3.15,2.81c3.12,3.58,5.89,11.44,5.84,16.28c-0.01,1.12-0.2,2.26-0.58,3.42 c-0.02,0.11-0.04,0.24-0.07,0.38c0.85,0.53,1.51,1.18,1.99,1.92l0,0c0.72,1.1,1.03,2.36,0.96,3.69c-0.07,1.28-0.51,2.63-1.31,3.94 c-0.92,1.52-2.34,3.01-4.22,4.3c-1.64,3.83-3.94,7.67-6.72,10.75c-0.89,0.99-1.84,1.9-2.83,2.71c0.8,0.86,2.28,2.14,3.69,3.35 c0.25,0.21,0.5,0.43,0.75,0.65c1.35,0.61,2.67,1.15,3.99,1.7c5.89,2.41,11.88,4.87,14.99,10.51h8.32c2.1,0,3.8,1.96,3.48,4.36 l-4.55,34.53c-0.31,2.38-1.96,4.36-4.36,4.36H8.95c-2.4,0-4.05-1.98-4.36-4.36L0.04,83.99C-0.28,81.6,1.42,79.63,3.52,79.63 L3.52,79.63z M13.85,79.63h60.16c-2.86-3.79-7.75-5.79-12.57-7.77c-1.01-0.41-2.01-0.82-2.97-1.24c-0.8,1.09-1.78,2.04-2.89,2.84 c-2.66,1.93-6.1,3.04-9.65,3.21c-3.53,0.17-7.19-0.58-10.31-2.38c-1.56-0.9-2.98-2.05-4.18-3.46c-1.17,0.48-2.42,0.94-3.69,1.43 C22.66,74.2,17.05,76.32,13.85,79.63L13.85,79.63z M44.3,95.9c2.89,0,5.23,2.34,5.23,5.23c0,2.89-2.34,5.23-5.23,5.23 c-2.89,0-5.23-2.34-5.23-5.23C39.07,98.24,41.41,95.9,44.3,95.9L44.3,95.9z M41.69,58.01c-0.48-0.29-0.63-0.92-0.34-1.4 c0.29-0.48,0.92-0.63,1.4-0.34c0.77,0.47,1.53,0.72,2.27,0.75c0.74,0.03,1.49-0.15,2.25-0.55c0.5-0.26,1.12-0.06,1.38,0.44 c0.26,0.5,0.06,1.12-0.44,1.38c-1.08,0.56-2.17,0.82-3.27,0.77C43.85,59.01,42.76,58.66,41.69,58.01L41.69,58.01z M53.94,40.98 c1.44,0,2.6,1.17,2.6,2.6c0,1.44-1.17,2.6-2.6,2.6s-2.6-1.17-2.6-2.6C51.33,42.14,52.5,40.98,53.94,40.98L53.94,40.98z M36.04,40.98c1.44,0,2.6,1.17,2.6,2.6c0,1.44-1.17,2.6-2.6,2.6c-1.44,0-2.6-1.17-2.6-2.6C33.44,42.14,34.6,40.98,36.04,40.98 L36.04,40.98z M23.88,37.34l-0.02,0.01c-0.39,0.25-0.7,0.58-0.94,1c-0.26,0.45-0.43,1-0.52,1.66c-0.2,1.51-0.11,3.14,0.37,4.6 c0.4,1.21,1.09,2.3,2.11,3.09c0.36,0.28,0.75,0.51,1.17,0.71c0.43,0.2,0.89,0.36,1.39,0.48c0.35,0.08,0.61,0.33,0.74,0.64l0,0 c1.01,2.52,2.12,4.78,3.36,6.75c1.22,1.94,2.57,3.59,4.05,4.93c1.58,1.43,3.14,2.43,4.67,3.07c2.81,1.18,5.51,1.11,8.02,0.18 c2.58-0.95,4.98-2.81,7.1-5.16c2.68-2.97,4.89-6.71,6.46-10.44c0.1-0.23,0.27-0.41,0.47-0.52c1.71-1.14,2.97-2.44,3.77-3.76 c0.61-1,0.94-2.01,1-2.95c0.05-0.89-0.15-1.72-0.61-2.42l0,0l0,0c-0.25-0.37-0.56-0.72-0.96-1.02c-0.8,1.81-2.14,4.2-3.87,6.57 V33.9c-4.98-2.31-8.23-7.37-9.89-14.99c-1.99,14.5-19.79,13.87-24.27,16.52v8.46c-0.85-1.19-1.61-2.41-2.3-3.64 C24.62,39.22,24.19,38.26,23.88,37.34L23.88,37.34z M36.46,64.58c-0.37,0.54-0.9,1.19-1.52,1.88c-0.52,0.58-1.12,1.2-1.75,1.8 c1.08,1.46,2.42,2.61,3.91,3.47c2.61,1.5,5.7,2.13,8.69,1.99c2.98-0.15,5.84-1.06,8.04-2.66c1.06-0.77,1.96-1.7,2.63-2.76 c-1.5-1.29-3.07-2.66-3.98-3.65c-1.11,0.74-2.27,1.35-3.48,1.79c-3,1.11-6.23,1.19-9.58-0.22C38.45,65.81,37.46,65.27,36.46,64.58 L36.46,64.58z"/></g></svg>