<?xml version="1.0" encoding="utf-8"?><svg version="1.1" id="Layer_1" xmlns="http://www.w3.org/2000/svg" xmlns:xlink="http://www.w3.org/1999/xlink" x="0px" y="0px" viewBox="0 0 122.88 99.16" style="enable-background:new 0 0 122.88 99.16" xml:space="preserve"><style type="text/css">.st0{fill-rule:evenodd;clip-rule:evenodd;}</style><g><path class="st0" d="M8.27,0h106.33c4.56,0,8.27,3.73,8.27,8.27v82.61c0,4.55-3.73,8.27-8.27,8.27H8.27C3.73,99.16,0,95.43,0,90.89 V8.27C-0.01,3.73,3.72,0,8.27,0L8.27,0L8.27,0z M59.07,73l20.54-13.09c0.14-0.11,0.34-0.09,0.47,0.04l1.98,2.11 c0.12,0.13,0.13,0.34,0.01,0.47L66.51,80.63c-2.21,2.38-4.58,2.84-6.48,2.23c-0.95-0.31-1.77-0.88-2.41-1.62 c-0.63-0.73-1.07-1.63-1.25-2.59c-0.35-1.92,0.35-4.07,2.68-5.64L59.07,73L59.07,73L59.07,73z M19.04,91.36 c-0.32-1.1-0.59-2.21-0.83-3.35c-0.59-2.89-0.9-5.88-0.9-8.94c0-5.98,1.19-11.67,3.34-16.87c2.24-5.4,5.52-10.26,9.59-14.33 c4.06-4.07,8.93-7.35,14.33-9.58c5.2-2.16,10.9-3.35,16.87-3.35c5.96,0,11.64,1.19,16.83,3.35c5.4,2.24,10.26,5.53,14.33,9.6 c4.08,4.08,7.37,8.95,9.61,14.34c2.16,5.2,3.36,10.89,3.36,16.84c0,2.91-0.29,5.75-0.83,8.51c-0.25,1.28-0.56,2.53-0.93,3.77h9.87 c0.64,0,1.19-0.25,1.62-0.67c0.43-0.43,0.67-0.99,0.67-1.62V20.6h0.04l0,0H7.23v68.47c0,0.64,0.25,1.19,0.67,1.62 c0.43,0.43,0.99,0.67,1.62,0.67H19.04L19.04,91.36z M98.28,91.36c0.5-1.48,0.91-3.01,1.23-4.56c0.46-2.24,0.72-4.56,0.77-6.92 h-6.54c-0.19,0-0.36-0.16-0.36-0.36v-4.56c0-0.19,0.16-0.36,0.36-0.36h6.29c-0.49-4.2-1.66-8.21-3.39-11.91 c-1.79-3.81-4.18-7.29-7.05-10.32l-4.21,4.21c-0.14,0.14-0.37,0.14-0.5,0l-3.22-3.23c-0.14-0.14-0.14-0.37,0-0.5l4.06-4.06 c-3.19-2.56-6.79-4.64-10.68-6.11c-3.77-1.41-7.82-2.26-12.03-2.43v5.77c0,0.19-0.16,0.36-0.36,0.36h-4.57 c-0.19,0-0.36-0.16-0.36-0.36V40.4c-4.19,0.4-8.19,1.47-11.88,3.08c-3.81,1.67-7.3,3.94-10.36,6.68l4.22,4.22 c0.14,0.14,0.14,0.37,0,0.5l-3.22,3.23c-0.14,0.14-0.37,0.14-0.5,0l-4.17-4.17c-2.68,3.16-4.87,6.76-6.44,10.67 c-1.51,3.81-2.45,7.89-2.7,12.16h6.49c0.19,0,0.36,0.16,0.36,0.36v4.57c0,0.19-0.16,0.36-0.36,0.36h-6.44 c0.16,2.11,0.49,4.17,0.97,6.16c0.25,1.06,0.55,2.11,0.9,3.14H98.28L98.28,91.36z M106.72,6.7c2.26,0,4.09,1.83,4.09,4.09 c0,2.26-1.83,4.09-4.09,4.09s-4.09-1.83-4.09-4.09C102.63,8.53,104.46,6.7,106.72,6.7L106.72,6.7L106.72,6.7z M79.01,6.7 c2.26,0,4.09,1.83,4.09,4.09c0,2.26-1.83,4.09-4.09,4.09c-2.26,0-4.09-1.83-4.09-4.09C74.91,8.53,76.74,6.7,79.01,6.7L79.01,6.7 L79.01,6.7z M92.86,6.7c2.26,0,4.09,1.83,4.09,4.09c0,2.26-1.83,4.09-4.09,4.09c-2.26,0-4.09-1.83-4.09-4.09 C88.77,8.53,90.6,6.7,92.86,6.7L92.86,6.7L92.86,6.7z"/></g></svg>